# Blender 3.4.1
# www.blender.org
mtllib block_platform_small_normal.mtl
o supports_ballast
v 0.500000 0.500000 -0.500000
v 0.500000 0.000000 -0.500000
v 0.500000 0.500000 0.500000
v 0.500000 -0.000000 0.500000
v -0.500000 0.500000 -0.500000
v -0.500000 0.000000 -0.500000
v -0.500000 0.500000 0.500000
v -0.500000 -0.000000 0.500000
vn -0.0000 1.0000 -0.0000
vn -0.0000 -0.0000 1.0000
vn -0.0000 -1.0000 -0.0000
vn -1.0000 -0.0000 -0.0000
vn 1.0000 -0.0000 -0.0000
vn -0.0000 -0.0000 -1.0000
vt 0.000257 -0.000027
vt 0.500000 0.000000
vt 0.500000 1.000000
vt 1.000000 0.000000
vt 0.000000 0.000000
vt 0.000000 1.000000
vt 0.000257 0.999973
vt 0.500000 0.000000
vt 0.500000 1.000000
vt 0.000000 0.000000
vt 1.000000 1.000000
vt 0.000000 1.000000
vt 1.000256 -0.000027
vt 0.500000 1.000000
vt 0.500000 0.000000
vt 0.000000 1.000000
vt 0.000000 0.000000
vt 1.000256 0.999973
vt 0.500000 1.000000
vt 0.500000 0.000000
vt 0.000000 1.000000
vt 0.000000 0.000000
s 0
usemtl Mat.001
f 1/1/1 5/13/1 7/18/1 3/7/1
f 4/10/2 3/8/2 7/19/2 8/21/2
f 6/17/3 2/4/3 4/11/3 8/21/3
f 8/22/4 7/20/4 5/14/4 6/16/4
f 2/5/5 1/2/5 3/9/5 4/12/5
f 6/17/6 5/15/6 1/3/6 2/6/6
